<?xml version="1.0" encoding="UTF-8"?>
<svg version="1.1" xmlns="http://www.w3.org/2000/svg" width="626" height="626">
<path d="M0 0 C206.58 0 413.16 0 626 0 C626 206.58 626 413.16 626 626 C419.42 626 212.84 626 0 626 C0 419.42 0 212.84 0 0 Z " fill="#010103" transform="translate(0,0)"/>
<path d="M0 0 C2.32271306 3.48406959 4.38039982 7.09220532 6.46484375 10.72265625 C7.95502864 13.24437446 7.95502864 13.24437446 11 15 C11 15.66 11 16.32 11 17 C18.32328775 19.57611228 25.25798419 20.61422945 33 21 C31.96884385 26.37414324 30.82889456 31.69116742 29.5 37 C23.64114067 62.81466953 21.50574696 98.14997223 32 123 C32.74074074 128.18518519 32.74074074 128.18518519 32 131 C29.9870586 133.48595635 27.74467536 135.36064639 25 137 C24.34 137 23.68 137 23 137 C22.67 137.99 22.34 138.98 22 140 C20.35178756 141.03013277 18.68496298 142.03114628 17 143 C16.67 143.66 16.34 144.32 16 145 C21.58114717 144.51908482 26.60239249 143.55700217 32 142 C33.66627525 141.96388132 35.33387538 141.95749682 37 142 C37.32871094 142.71800781 37.65742187 143.43601562 37.99609375 144.17578125 C39.02629222 146.41764946 40.06207727 148.65695389 41.1015625 150.89453125 C42.45083052 153.79938393 43.7727071 156.71541422 45.0859375 159.63671875 C49.59275225 169.54470059 54.53948093 178.24268043 61 187 C62.03070032 188.55600893 63.05253193 190.11795502 64.0625 191.6875 C67.38050689 196.71591608 71.17602989 201.35106171 75 206 C73.30477268 210.81901698 70.73948145 215.01499013 68.125 219.375 C67.25219312 220.84090117 66.37979267 222.30704442 65.5078125 223.7734375 C65.08790039 224.47823242 64.66798828 225.18302734 64.23535156 225.90917969 C62.45615936 228.92044491 60.72576251 231.95784189 59 235 C71.54042492 228.18652331 71.54042492 228.18652331 83.3125 220.1875 C85 219 85 219 88 219 C88 219.66 88 220.32 88 221 C88.66 221 89.32 221 90 221 C91.22407497 222.45565672 92.44375301 223.9156288 93.625 225.40625 C95.11818763 227.23536089 95.11818763 227.23536089 97.8125 229.25 C98.534375 229.8275 99.25625 230.405 100 231 C100 231.66 100 232.32 100 233 C101.07121094 233.38865234 101.07121094 233.38865234 102.1640625 233.78515625 C105.18327754 235.07851145 107.69066613 236.54429679 110.375 238.4375 C111.71691406 239.33275391 111.71691406 239.33275391 113.0859375 240.24609375 C116.20083529 244.7277324 114.9187292 248.81853965 114 254 C113.08770991 259.02034956 112.06738012 264.01050143 111 269 C110.72342881 270.32150387 110.44738414 271.64311805 110.171875 272.96484375 C108.16071429 282.51785714 108.16071429 282.51785714 107 286 C107.66 286 108.32 286 109 286 C109.25910156 285.25621094 109.51820312 284.51242187 109.78515625 283.74609375 C111.03842927 280.91313255 112.31385238 279.29210925 114.4375 277.0625 C118.65430141 272.49879537 122.42827304 267.67238467 126.14233398 262.69750977 C128.49678074 259.61664102 130.28858271 257.27461049 134 256 C135.80493164 256.5480957 135.80493164 256.5480957 137.66015625 257.67578125 C138.7119104 258.29296021 138.7119104 258.29296021 139.78491211 258.92260742 C140.91231812 259.61060425 140.91231812 259.61060425 142.0625 260.3125 C143.68741654 261.25724198 145.3151132 262.19721568 146.9453125 263.1328125 C147.78223633 263.61395508 148.61916016 264.09509766 149.48144531 264.59082031 C165.47193401 273.53780565 182.84156426 280.48695983 200.62890625 284.8828125 C203 286 203 286 204.30859375 288.31640625 C204.96612089 290.86850313 205.33030454 293.18646269 205.5 295.8125 C205.81437927 299.56850491 206.45560854 302.99634989 207.45703125 306.640625 C208.69425919 312.01678095 209.27848229 317.53488715 210 323 C213.00213998 315.70038046 215.71936533 308.3830927 217.93359375 300.8046875 C218.26488281 299.71414063 218.59617188 298.62359375 218.9375 297.5 C219.23527344 296.4790625 219.53304687 295.458125 219.83984375 294.40625 C221 292 221 292 222.71484375 291.07421875 C225.85025137 290.972385 228.56683544 291.60958854 231.625 292.3125 C247.17484168 295.60373906 262.53650608 296.3271108 278.39477539 296.26074219 C281.43070492 296.25002399 284.46604138 296.26070523 287.50195312 296.2734375 C297.6334106 296.27960037 307.59438914 295.97969978 317.6526947 294.6987915 C322.80884352 294.04821278 327.80058455 293.91928462 333 294 C333.59167969 295.0621875 334.18335938 296.124375 334.79296875 297.21875 C335.59066597 298.64610162 336.38887586 300.0731668 337.1875 301.5 C337.59806641 302.23379883 338.00863281 302.96759766 338.43164062 303.72363281 C340.53375832 307.46128442 342.6697644 311.14810191 345 314.75 C346.66552298 317.45647485 347.37665506 319.01313883 348 322 C348.66 322 349.32 322 350 322 C349.93941406 321.39115967 349.87882812 320.78231934 349.81640625 320.1550293 C349.53877132 317.33303036 349.26935814 314.51030052 349 311.6875 C348.85691406 310.25180664 348.85691406 310.25180664 348.7109375 308.78710938 C348.08717832 302.17080665 347.88293693 295.64414205 348 289 C348.98097656 288.76925781 349.96195312 288.53851562 350.97265625 288.30078125 C359.21223031 286.32456045 367.22823833 284.05786629 375.2421875 281.29296875 C377.8667905 280.38990888 380.48856939 279.51611799 383.1328125 278.67578125 C383.81142334 278.45784912 384.49003418 278.23991699 385.18920898 278.01538086 C387.07686196 277.41045554 388.96611818 276.81053971 390.85546875 276.2109375 C393.7967834 275.07825732 395.53633973 273.89071602 398 272 C400.34556859 270.89974495 402.67173479 269.86308365 405.0625 268.875 C405.68705078 268.61074219 406.31160156 268.34648437 406.95507812 268.07421875 C409.61529233 266.95562281 412.26124068 265.91291977 415 265 C415.433125 264.54625 415.86625 264.0925 416.3125 263.625 C418.60436463 261.41801924 421.13669206 260.4056239 424 259 C426.6254355 257.42715845 429.23017952 255.82484275 431.828125 254.20703125 C434 253 434 253 436 253 C436 252.34 436 251.68 436 251 C438.13602727 249.35897905 440.2752451 247.82451039 442.5 246.3125 C447.476058 242.8758747 452.06569955 239.37759072 456.3515625 235.08203125 C458 234 458 234 459.8515625 234.08203125 C462.77798576 235.3324121 465.15803482 237.0264157 467.75 238.875 C468.89818791 239.68524964 470.04663823 240.49512751 471.1953125 241.3046875 C472.11038574 241.9538916 472.11038574 241.9538916 473.04394531 242.61621094 C476.55522422 245.10022602 480.08861584 247.55191994 483.625 250 C484.31174805 250.48065918 484.99849609 250.96131836 485.70605469 251.45654297 C488.44773792 253.35520988 490.81863253 254.93954418 494 256 C493.4946875 255.08476562 492.989375 254.16953125 492.46875 253.2265625 C491.81228073 252.02616155 491.1560427 250.82563413 490.5 249.625 C489.99919922 248.72007812 489.99919922 248.72007812 489.48828125 247.796875 C487 243.2265625 487 243.2265625 487 241 C486.34 241 485.68 241 485 241 C484.78085937 240.47792969 484.56171875 239.95585937 484.3359375 239.41796875 C481.94212306 233.86159459 479.17202004 228.6784743 476.07421875 223.48046875 C474.82852253 220.60404294 474.98776483 219.87698806 476 217 C477.72373836 214.82039695 479.46001658 212.75087416 481.3125 210.6875 C485.1938251 206.35378204 488.25499433 202.14444055 491 197 C491.66 197 492.32 197 493 197 C493.27457031 196.25621094 493.54914063 195.51242187 493.83203125 194.74609375 C494.91266788 192.20533272 496.07871239 190.28835683 497.6875 188.0625 C501.80604569 182.06264331 504.8541253 175.54304708 508 169 C508.66 169 509.32 169 510 169 C510.23783203 167.87464844 510.23783203 167.87464844 510.48046875 166.7265625 C512.12861557 159.49657038 514.45623951 153.51285711 518 147 C524.6 147 531.2 147 538 147 C536.35 146.01 534.7 145.02 533 144 C531.05883896 142.77662321 529.12136505 141.54737769 527.1875 140.3125 C525.72376953 139.37857422 525.72376953 139.37857422 524.23046875 138.42578125 C523.12638672 137.72001953 523.12638672 137.72001953 522 137 C522.33765287 129.67642572 522.99369333 122.91426689 525.28125 115.92578125 C527.72623438 105.97310028 527.11866841 95.55102084 527.0625 85.375 C527.05747395 83.78255349 527.052913 82.19010545 527.04882812 80.59765625 C527.03791237 76.73173221 527.02070895 72.86588347 527 69 C531.7041609 66.53953568 536.29541844 64.41211116 541.375 62.8125 C545.26908651 61.60560557 545.26908651 61.60560557 549 60 C550.68779318 62.14560326 552.37521955 64.29149359 554.0625 66.4375 C554.56620117 67.07768066 555.06990234 67.71786133 555.58886719 68.37744141 C558.32856469 71.86217516 561.04995983 75.35938706 563.75 78.875 C569.78131128 87.22101863 569.78131128 87.22101863 578 93 C595.20305303 82.00633298 608.4167853 65.36194858 617 47 C617.8353125 45.2365625 617.8353125 45.2365625 618.6875 43.4375 C619.95728665 40.11186831 620.75274326 36.96323435 621.4609375 33.48828125 C622.44569447 28.94270014 623.74474812 24.47706505 625 20 C625.33 20 625.66 20 626 20 C626 143.09 626 266.18 626 393 C419.42 393 212.84 393 0 393 C0 263.31 0 133.62 0 0 Z " fill="#FEFEFE" transform="translate(0,233)"/>
<path d="M0 0 C206.58 0 413.16 0 626 0 C626 74.91 626 149.82 626 227 C623.69822082 223.54733123 623.37307099 221.1380723 622.6875 217.0625 C621.3849788 209.92028436 619.13499761 203.56629072 616 197 C615.33097656 195.58074219 615.33097656 195.58074219 614.6484375 194.1328125 C612.68723826 190.40560447 610.4625547 186.93681237 608.125 183.4375 C607.49271484 182.46780273 607.49271484 182.46780273 606.84765625 181.47851562 C600.6949034 172.23057059 591.96979688 165.39950421 583 159 C582.43152344 158.59007812 581.86304688 158.18015625 581.27734375 157.7578125 C560.47026627 143.76448127 533.65898662 138.59710293 509.125 143.1875 C491.68667534 147.29063521 476.63621934 153.85410373 462.56616211 164.93823242 C458.48008338 168.0598044 458.48008338 168.0598044 456.00878906 167.75195312 C452.6905156 166.50981867 450.14801517 164.16026274 447.4375 161.9375 C446.18083773 160.92955384 444.92301296 159.92305544 443.6640625 158.91796875 C443.04305664 158.42087402 442.42205078 157.9237793 441.78222656 157.41162109 C424.49281443 143.71745932 403.54899656 130.15521344 382.5625 123 C379.11666683 121.7913515 375.803629 120.4918013 372.5 118.9375 C368.21906985 116.96347253 363.86198757 115.80525722 359.28515625 114.7109375 C357 114 357 114 355 112 C352.96159134 111.38744765 352.96159134 111.38744765 350.60546875 111 C349.73212891 110.835 348.85878906 110.67 347.95898438 110.5 C347.04439453 110.335 346.12980469 110.17 345.1875 110 C343.38847561 109.67127035 341.59026218 109.33806548 339.79296875 109 C338.9939917 108.855625 338.19501465 108.71125 337.37182617 108.5625 C335 108 335 108 332.63232422 107.00219727 C329.44748669 105.78964319 326.47083988 105.38772254 323.08984375 104.96484375 C322.44052383 104.88126114 321.79120392 104.79767853 321.12220764 104.71156311 C319.06137725 104.44727069 316.99957125 104.19191295 314.9375 103.9375 C312.87208268 103.67802788 310.806935 103.41664043 308.74208069 103.15272522 C306.8714226 102.91433294 305.00005777 102.68150601 303.12866211 102.44897461 C300 102 300 102 298.10978699 101.48002625 C295.71806138 100.93585232 293.56749013 100.87290338 291.11474609 100.87060547 C289.66205826 100.86587723 289.66205826 100.86587723 288.18002319 100.86105347 C287.13834991 100.8630777 286.09667664 100.86510193 285.0234375 100.8671875 C283.94301178 100.86623077 282.86258606 100.86527405 281.74942017 100.86428833 C279.46136415 100.86360783 277.17330621 100.86545304 274.88525391 100.86962891 C271.40913461 100.87494777 267.93314636 100.86969566 264.45703125 100.86328125 C262.22916638 100.86394266 260.0013016 100.86522513 257.7734375 100.8671875 C256.74390961 100.86516327 255.71438171 100.86313904 254.65365601 100.86105347 C248.37732562 100.88109051 242.2316161 101.24781412 236 102 C234.45645491 99.0843226 232.91533775 96.16737322 231.375 93.25 C230.94832031 92.44433594 230.52164063 91.63867188 230.08203125 90.80859375 C226.6239092 84.25364599 223.29370172 77.63893462 220 71 C219.94465088 71.99443115 219.88930176 72.9888623 219.83227539 74.01342773 C219.62637348 77.69062576 219.41434921 81.36744928 219.20043945 85.04418945 C219.10858854 86.63784342 219.01841519 88.23159497 218.92993164 89.82543945 C218.80271606 92.11176635 218.66954035 94.39767843 218.53515625 96.68359375 C218.49656998 97.40026718 218.4579837 98.11694061 218.41822815 98.85533142 C218.11387171 103.88612829 218.11387171 103.88612829 217 105 C215.09029125 105.42814438 213.17141435 105.81539511 211.25 106.1875 C201.34910109 108.24680582 191.69214744 111.13324306 182 114 C181.11973145 114.25692627 180.23946289 114.51385254 179.33251953 114.77856445 C167.55001373 118.24923551 156.77737451 123.49570717 145.87060547 129.05957031 C144.22930548 129.88471878 142.57091901 130.67569696 140.91015625 131.4609375 C127.84195231 137.66340467 115.9517032 145.92252008 104.734375 155.00390625 C102.18652418 156.86383735 99.97322528 157.99626519 97 159 C96.82984375 158.34773437 96.6596875 157.69546875 96.484375 157.0234375 C94.20374522 148.79861306 91.1518906 142.9962974 84 138 C83.44828125 137.60425781 82.8965625 137.20851562 82.328125 136.80078125 C76.02559686 132.96270322 69.15448551 133.0905997 62 134 C54.64619188 136.16523251 49.17180451 140.6039708 45 147 C42.54396892 151.99751287 41.52158376 156.1807865 41.33984375 161.76953125 C41.30443985 162.49057541 41.26903595 163.21161957 41.2325592 163.95451355 C41.12172548 166.24014065 41.02822478 168.52599356 40.9375 170.8125 C40.8102987 173.81951303 40.6743995 176.82592267 40.52734375 179.83203125 C40.47494034 180.90555344 40.47494034 180.90555344 40.42147827 182.00076294 C40.11608715 187.46736724 39.354604 192.69848707 38 198 C36.88882813 198.01417969 35.77765625 198.02835938 34.6328125 198.04296875 C24.90261688 198.29905533 16.84639566 198.87962733 9.20703125 205.5703125 C5.25225241 209.76921349 3.05714999 214.66351091 1 220 C0.67 220 0.34 220 0 220 C0 147.4 0 74.8 0 0 Z " fill="#FEFEFE" transform="translate(0,0)"/>
<path d="M0 0 C1.30043679 1.05174768 2.59228609 2.11420877 3.875 3.1875 C4.50664062 3.67476562 5.13828125 4.16203125 5.7890625 4.6640625 C12.5882578 10.07448599 16.90225461 17.74710906 18.21240234 26.42138672 C19.19385815 39.87107293 16.87742494 49.38688294 8.125 59.9375 C6.390625 61.859375 6.390625 61.859375 4.875 63.1875 C4.215 63.1875 3.555 63.1875 2.875 63.1875 C2.38 64.6725 2.38 64.6725 1.875 66.1875 C-0.48828125 67.5390625 -0.48828125 67.5390625 -3.4375 68.8125 C-4.40300781 69.23789063 -5.36851562 69.66328125 -6.36328125 70.1015625 C-15.40494222 73.65684079 -26.78922482 73.48072717 -35.92578125 70.21875 C-44.878935 66.02046831 -52.56178428 57.89212159 -57.125 49.1875 C-60.52879552 39.59084575 -60.72115114 27.02687498 -57.23046875 17.390625 C-53.70547609 10.36555129 -48.32613266 4.90324507 -42.125 0.1875 C-41.155625 -0.555 -40.18625 -1.2975 -39.1875 -2.0625 C-27.44577329 -8.77205812 -10.89842655 -7.90914384 0 0 Z " fill="#F9F9FA" transform="translate(217.125,153.8125)"/>
<path d="M0 0 C0 0.66 0 1.32 0 2 C0.8971875 2.2165625 0.8971875 2.2165625 1.8125 2.4375 C6.79682033 3.71918237 8.39459308 5.06502661 10.97265625 9.421875 C13.23939318 15.11026424 13.27449691 21.67874745 11.078125 27.40234375 C9.86272513 29.45826366 8.56713495 31.19963609 7 33 C6.49597656 33.5878125 5.99195313 34.175625 5.47265625 34.78125 C1.87849064 38.65892486 -0.43001028 39.72065329 -5.515625 40.2734375 C-12.40370851 40.5292806 -16.75488035 39.56563824 -22 35 C-26.63821063 30.37362154 -29.28471813 26.23708504 -29.3125 19.625 C-29.18249087 13.51457082 -27.74039054 10.03045563 -23.75 5.375 C-16.4768232 -0.90637996 -9.44058372 -3.14686124 0 0 Z " fill="#F7F7F7" transform="translate(221,331)"/>
<path d="M0 0 C5.63085991 3.35272575 10.031738 8.01547935 12.609375 14.09375 C13.68286706 20.63640164 12.52759736 25.60905815 9.03125 31.1875 C7.14984698 33.70982054 5.26731765 35.40822539 2.609375 37.09375 C1.7225 37.67125 0.835625 38.24875 -0.078125 38.84375 C-5.71642516 40.97141044 -11.036879 40.93754573 -16.703125 38.90625 C-22.37889095 35.07840785 -26.29268975 30.63175984 -28.390625 24.09375 C-29.4396392 18.02381314 -29.0428689 13.40318616 -25.703125 8.15625 C-19.32635131 -0.25086437 -10.35918875 -3.92701273 0 0 Z " fill="#070709" transform="translate(204.390625,167.90625)"/>
<path d="M0 0 C4.53906574 2.56881193 7.2966474 4.93966153 8.8203125 10.08203125 C9.51580799 15.44841122 9.94973341 19.56538032 6.6328125 24.01953125 C5.7046875 24.70015625 4.7765625 25.38078125 3.8203125 26.08203125 C3.0984375 26.84515625 2.3765625 27.60828125 1.6328125 28.39453125 C-2.60824242 30.9391642 -6.37388679 31.19050122 -11.1796875 30.08203125 C-15.4219367 27.43678133 -18.42050007 24.22081239 -21.1796875 20.08203125 C-21.82220096 14.83732835 -22.08713202 9.82432473 -19.6171875 5.08203125 C-13.56690786 0.11769924 -7.7691301 -3.27194547 0 0 Z " fill="#F6F6F6" transform="translate(334.1796875,309.91796875)"/>
<path d="M0 0 C4.36350222 2.22291622 7.09544338 4.45022584 9 9 C9.4924285 12.38544592 9.72880008 14.76913764 7.9453125 17.78125 C6.625 19.4375 6.625 19.4375 4 22 C3.34 22 2.68 22 2 22 C2 22.66 2 23.32 2 24 C-6.98185246 24.78482206 -6.98185246 24.78482206 -11 21.6875 C-14.35963924 17.17298478 -15.4938902 14.82997192 -15.39453125 9.29296875 C-14.72761415 5.41692581 -12.8124343 3.67850886 -10 1 C-6.78314421 -0.60842789 -3.4888991 -0.46778535 0 0 Z " fill="#F3F3F4" transform="translate(331,418)"/>
<path d="M0 0 C2.87689983 2.21932272 3.94090355 4.25983635 4.55859375 7.8359375 C4.6848398 12.06889331 4.56100209 14.83092222 1.8125 18.1875 C-2.21450031 22.02273839 -4.92484734 22.08198162 -10.33203125 22.04296875 C-12.8125 21.6875 -12.8125 21.6875 -15.8125 19.375 C-19.37964481 14.58164917 -20.16099386 12.69853164 -19.3515625 6.91015625 C-18.56837412 3.68092301 -17.24591165 1.91812735 -14.8125 -0.3125 C-9.80903714 -3.28753197 -5.1233325 -2.3908885 0 0 Z " fill="#F4F4F5" transform="translate(266.8125,258.3125)"/>
<path d="M0 0 C0.33 0 0.66 0 1 0 C1.33 7.26 1.66 14.52 2 22 C1.34 22 0.68 22 0 22 C-0.66 20.35 -1.32 18.7 -2 17 C-1.34 17 -0.68 17 0 17 C0 11.39 0 5.78 0 0 Z " fill="#5F5F61" transform="translate(348,533)"/>
<path d="M0 0 C0.66796875 1.79296875 0.66796875 1.79296875 1 4 C-0.07421875 5.73828125 -0.07421875 5.73828125 -1.6875 7.3125 C-2.46673828 8.11107422 -2.46673828 8.11107422 -3.26171875 8.92578125 C-5 10 -5 10 -7.20703125 9.66796875 C-7.79871094 9.44753906 -8.39039063 9.22710937 -9 9 C-8.2575 8.443125 -7.515 7.88625 -6.75 7.3125 C-4.08292005 5.06972822 -2.08443768 2.77925025 0 0 Z " fill="#363638" transform="translate(229,208)"/>
<path d="M0 0 C0.66 0.33 1.32 0.66 2 1 C-1.96 5.29 -5.92 9.58 -10 14 C-10 9.88181592 -8.33436007 8.84145243 -5.5625 5.875 C-4.73878906 4.98554688 -3.91507813 4.09609375 -3.06640625 3.1796875 C-1 1 -1 1 0 0 Z " fill="#D0D0D2" transform="translate(173,155)"/>
<path d="M0 0 C0 0.99 0 1.98 0 3 C0.928125 2.7215625 0.928125 2.7215625 1.875 2.4375 C4 2 4 2 6 3 C6 3.99 6 4.98 6 6 C4.51800098 5.55090939 3.03944764 5.09043436 1.5625 4.625 C0.73878906 4.36976563 -0.08492187 4.11453125 -0.93359375 3.8515625 C-3 3 -3 3 -4 1 C-2 0 -2 0 0 0 Z " fill="#2A2A2C" transform="translate(161,500)"/>
<path d="M0 0 C3.46941546 0.45822468 6.67395049 0.89131683 10 2 C8.58622218 2.36552803 7.16879424 2.71695495 5.75 3.0625 C4.96109375 3.25972656 4.1721875 3.45695312 3.359375 3.66015625 C0.89605178 4.01497267 -0.65604132 3.76877544 -3 3 C-2.34 3 -1.68 3 -1 3 C-0.67 2.01 -0.34 1.02 0 0 Z " fill="#555556" transform="translate(17,375)"/>
<path d="M0 0 C0.33 0.66 0.66 1.32 1 2 C-0.98 4.31 -2.96 6.62 -5 9 C-5 4.61031544 -2.87194899 3.23094261 0 0 Z " fill="#353537" transform="translate(184,170)"/>
<path d="M0 0 C2.475 0.99 2.475 0.99 5 2 C5.33 1.34 5.66 0.68 6 0 C6.66 1.98 7.32 3.96 8 6 C6.66402348 5.19185349 5.331275 4.37836819 4 3.5625 C3.2575 3.11003906 2.515 2.65757812 1.75 2.19140625 C1.1725 1.79824219 0.595 1.40507812 0 1 C0 0.67 0 0.34 0 0 Z " fill="#575759" transform="translate(487,485)"/>
</svg>
